<svg xmlns="http://www.w3.org/2000/svg" xml:space="preserve" width="2.66666in" height="2.66666in" version="1.1" style="shape-rendering:geometricPrecision; text-rendering:geometricPrecision; image-rendering:optimizeQuality; fill-rule:evenodd; clip-rule:evenodd" viewBox="0 0 2667 2667" xmlns:xlink="http://www.w3.org/1999/xlink">
 <defs>
  <style type="text/css">
   
    .fil0 {fill:#CF5300}
    .fil1 {fill:#FF6600}
   
  </style>
 </defs>
 <g id="Layer_x0020_1">
  <metadata id="CorelCorpID_0Corel-Layer"></metadata>
  <path class="fil0" d="M1088 1696c-163,0 -315,-64 -430,-178 -237,-237 -237,-623 0,-860 115,-115 267,-178 430,-178 162,0 315,63 430,178 114,115 178,268 178,430 0,162 -64,315 -178,430 -115,114 -268,178 -430,178zm927 491c-45,0 -91,-16 -129,-45l256 -256c25,34 41,74 44,115 4,53 -13,102 -48,137 -32,31 -75,49 -123,49zm-150 -62c-1,-2 -3,-3 -5,-5l-58 -58 96 -97 0 0 0 0 1 0 0 0 0 0 0 0 0 0 0 0 0 -1 0 0 1 0 0 0 0 0 0 0 0 0 0 0 0 -1 0 0 0 0 0 0 0 0 0 0 1 -1 0 0 0 0 0 0 0 0 0 0 0 -1 0 0 0 0 0 0 0 0 0 0c1,-1 1,-2 1,-3l0 0 0 0 0 0c0,-1 0,-1 0,-1l0 0 0 -1c0,-2 0,-3 -1,-5l0 0 0 0 0 0c0,-1 0,-1 -1,-2l0 0 0 0 0 0 0 -1 0 0 0 0 0 0 -1 -1 0 0 0 0 0 0 0 0 0 0 -1 -1 0 0 -113 -113c-3,-3 -7,-4 -10,-4l0 0 0 0 -1 0 0 0 0 0 0 0 -1 0 0 0 0 0 0 0 0 0 0 0 0 0 0 0 -1 0 0 0 0 0 0 0 0 0 0 0 -1 0 0 0c0,0 0,0 -1,1l0 0 0 0c-2,0 -3,1 -4,3l-97 96 -63 -63 260 -260 63 63 -97 97c-5,5 -5,13 0,19l1 0 113 114c3,2 6,3 10,3l0 0 0 0 0 0 0 0 1 0 0 0 0 0 0 0 0 0 0 0 0 0 0 0 1 0 0 0 0 0 0 0 0 0 0 0 0 0 0 0 0 0 0 0 0 0 1 0 0 0 0 0 0 0 0 0 0 0 0 0 0 0 0 0 0 0 0 0 0 0 1 0 0 0 0 0 0 0 0 0 0 0 0 0 0 0 0 0 1 0 0 0 0 -1 0 0 0 0 0 0 0 0 0 0 0 0 0 0 0 0 0 0 0 0 0 0 1 0 0 0 0 0 0 0 0 0 0 0 0 0 0 0 0 0 0 0 0 0 0 0 0 0 0 0 1 0 0 0 0 -1 0 0 0 0 0 0 0 0 0 0 0 0 0 0 0 0 0 0 0 0 0 0 1 0 0 0 0 0 0 0 0 0 0 0 0 0 0 0 0 0 0 0 0 -1 0 0 0 0 0 0 0 0 0 0 1 0 0 0 0 0 0 0 0 0 0 0 0 0 0 0 0 0 0 0 0 0 0 0 97 -97 58 58c2,2 3,4 5,5l-260 260zm5 -169l-87 87 -95 -95 87 -87 95 95zm-9 -181l87 -87 95 95 -87 87 -95 -95zm-274 72l-105 -105c-10,-10 -10,-27 0,-38l26 -26 -65 -64c33,-23 65,-49 93,-77 29,-29 55,-61 77,-94l65 65 26 -26c11,-10 27,-10 38,0l105 105 -260 260zm-499 -558c111,0 201,-90 201,-201 0,-111 -90,-201 -201,-201 -111,0 -202,90 -202,201 0,111 91,201 202,201zm0 -376c96,0 174,79 174,175 0,96 -78,175 -174,175 -97,0 -175,-79 -175,-175 0,-96 78,-175 175,-175zm52 549c6,0 12,-4 13,-10l27 -89 6 -2c9,-3 17,-7 25,-11l6 -2 82 44c5,3 12,2 16,-2l74 -75c5,-4 6,-11 3,-16l-45 -82 3 -6c4,-8 7,-16 10,-25l3 -6 89 -27c6,-1 10,-7 10,-12l0 -106c0,-6 -4,-11 -10,-13l-89 -27 -3 -6c-3,-8 -6,-16 -10,-24l-3 -6 45 -83c3,-5 2,-11 -3,-15l-74 -75c-4,-4 -11,-5 -16,-2l-82 44 -6 -3c-8,-4 -16,-7 -25,-10l-6 -2 -27 -90c-1,-5 -7,-9 -13,-9l-105 0c-6,0 -11,4 -13,9l-27 90 -6 2c-8,3 -16,6 -24,10l-6 3 -83 -44c-5,-3 -11,-2 -15,2l-75 75c-4,4 -5,10 -2,15l44 83 -3 6c-4,8 -7,16 -10,24l-2 6 -90 27c-5,2 -9,7 -9,13l0 106c0,5 4,11 9,12l90 27 2 6c3,9 6,17 10,25l3 6 -44 82c-3,5 -2,12 2,16l75 75c4,4 10,5 15,2l83 -44 6 2c8,4 16,8 24,11l6 2 27 89c2,6 7,10 13,10l105 0zm-95 -27l-26 -87c-1,-4 -5,-7 -9,-9 -16,-4 -31,-11 -45,-18 -4,-2 -9,-2 -13,0l-80 43 -60 -61 43 -80c2,-4 2,-8 0,-12 -8,-15 -14,-30 -19,-45 -1,-5 -5,-8 -9,-9l-87 -26 0 -86 87 -26c4,-1 8,-5 9,-9 5,-15 11,-31 19,-45 2,-4 2,-9 0,-13l-43 -79 60 -61 80 43c4,2 9,2 13,0 14,-8 29,-14 45,-19 4,-1 8,-4 9,-9l26 -86 86 0 26 86c1,5 4,8 8,9 16,5 31,11 46,19 4,2 8,2 12,0l80 -43 61 61 -43 79c-2,4 -3,9 0,13 7,14 14,30 18,45 2,4 5,8 9,9l87 26 0 86 -87 26c-4,1 -7,4 -9,9 -4,15 -11,30 -18,45 -3,4 -2,8 0,12l43 80 -61 61 -80 -43c-4,-2 -8,-2 -12,0 -15,7 -30,14 -46,19 -4,1 -7,4 -8,8l-26 87 -86 0zm43 139c129,0 251,-51 343,-143 92,-91 142,-213 142,-343 0,-130 -50,-252 -142,-344 -92,-91 -214,-142 -343,-142 -130,0 -252,51 -344,142 -91,92 -142,214 -142,344 0,130 51,252 142,343 92,92 214,143 344,143zm0 -945c122,0 238,48 324,134 87,87 135,202 135,325 0,122 -48,238 -135,324 -86,87 -202,135 -324,135 -123,0 -238,-48 -325,-135 -87,-86 -134,-202 -134,-324 0,-123 48,-238 134,-325 87,-86 202,-134 325,-134z" id="id_101" style="fill: rgb(214, 165, 19);"></path>
  <path class="fil1" d="M1333 532c68,29 131,72 185,126 114,115 178,268 178,430 0,162 -64,315 -178,430 -54,54 -117,96 -185,126l0 -137c36,-21 68,-46 98,-76 92,-91 142,-213 142,-343 0,-130 -50,-252 -142,-344 -30,-29 -62,-55 -98,-75l0 -137zm0 944l0 -105 56 -56c5,-4 6,-11 3,-16l-45 -82 3 -6c4,-8 7,-16 10,-25l3 -6 89 -27c6,-1 10,-7 10,-12l0 -106c0,-6 -4,-11 -10,-13l-89 -27 -3 -6c-3,-8 -6,-16 -10,-24l-3 -6 45 -83c3,-5 2,-11 -3,-15l-56 -56 0 -105c29,18 55,39 79,63 87,87 135,202 135,325 0,122 -48,238 -135,324 -24,25 -50,46 -79,64zm0 -143l0 -86 31 56 -31 30zm0 -150l0 -190c3,6 5,11 6,17 2,4 5,8 9,9l87 26 0 86 -87 26c-4,1 -7,4 -9,9 -1,5 -3,11 -6,17zm0 -254l0 -87 31 31 -31 56zm682 1258c-45,0 -91,-16 -129,-45l256 -256c25,34 41,74 44,115 4,53 -13,102 -48,137 -32,31 -75,49 -123,49zm-150 -62c-1,-2 -3,-3 -5,-5l-58 -58 96 -97 0 0 0 0 1 0 0 0 0 0 0 0 0 0 0 0 0 -1 0 0 1 0 0 0 0 0 0 0 0 0 0 0 0 -1 0 0 0 0 0 0 0 0 0 0 1 -1 0 0 0 0 0 0 0 0 0 0 0 -1 0 0 0 0 0 0 0 0 0 0c1,-1 1,-2 1,-3l0 0 0 0 0 0c0,-1 0,-1 0,-1l0 0 0 -1c0,-2 0,-3 -1,-5l0 0 0 0 0 0c0,-1 0,-1 -1,-2l0 0 0 0 0 0 0 -1 0 0 0 0 0 0 -1 -1 0 0 0 0 0 0 0 0 0 0 -1 -1 0 0 -113 -113c-3,-3 -7,-4 -10,-4l0 0 0 0 -1 0 0 0 0 0 0 0 -1 0 0 0 0 0 0 0 0 0 0 0 0 0 0 0 -1 0 0 0 0 0 0 0 0 0 0 0 -1 0 0 0c0,0 0,0 -1,1l0 0 0 0c-2,0 -3,1 -4,3l-97 96 -63 -63 260 -260 63 63 -97 97c-5,5 -5,13 0,19l1 0 113 114c3,2 6,3 10,3l0 0 0 0 0 0 0 0 1 0 0 0 0 0 0 0 0 0 0 0 0 0 0 0 1 0 0 0 0 0 0 0 0 0 0 0 0 0 0 0 0 0 0 0 0 0 1 0 0 0 0 0 0 0 0 0 0 0 0 0 0 0 0 0 0 0 0 0 0 0 1 0 0 0 0 0 0 0 0 0 0 0 0 0 0 0 0 0 1 0 0 0 0 -1 0 0 0 0 0 0 0 0 0 0 0 0 0 0 0 0 0 0 0 0 0 0 1 0 0 0 0 0 0 0 0 0 0 0 0 0 0 0 0 0 0 0 0 0 0 0 0 0 0 0 1 0 0 0 0 -1 0 0 0 0 0 0 0 0 0 0 0 0 0 0 0 0 0 0 0 0 0 0 1 0 0 0 0 0 0 0 0 0 0 0 0 0 0 0 0 0 0 0 0 -1 0 0 0 0 0 0 0 0 0 0 1 0 0 0 0 0 0 0 0 0 0 0 0 0 0 0 0 0 0 0 0 0 0 0 97 -97 58 58c2,2 3,4 5,5l-260 260zm5 -169l-87 87 -95 -95 87 -87 95 95zm-9 -181l87 -87 95 95 -87 87 -95 -95zm-274 72l-105 -105c-10,-10 -10,-27 0,-38l26 -26 -65 -64c33,-23 65,-49 93,-77 29,-29 55,-61 77,-94l65 65 26 -26c11,-10 27,-10 38,0l105 105 -260 260z" id="id_102" style="fill: rgb(242, 182, 0);"></path>
 </g>
 <g id="_546511144">
  <path class="fil1" d="M1333 0c737,0 1334,597 1334,1333 0,737 -597,1334 -1334,1334 -736,0 -1333,-597 -1333,-1334 0,-736 597,-1333 1333,-1333zm0 155c651,0 1179,528 1179,1178 0,651 -528,1179 -1179,1179 -650,0 -1178,-528 -1178,-1179 0,-650 528,-1178 1178,-1178z" id="id_103" style="fill: rgb(235, 181, 18);"></path>
  <path class="fil0" d="M1333 2667c-736,0 -1333,-597 -1333,-1334 0,-736 597,-1333 1333,-1333l0 155c-650,0 -1178,528 -1178,1178 0,651 528,1179 1178,1179l0 155z" id="id_104" style="fill: rgb(181, 140, 18);"></path>
 </g>
</svg>