<?xml version="1.0" standalone="no"?>
<!DOCTYPE svg PUBLIC "-//W3C//DTD SVG 20010904//EN"
 "http://www.w3.org/TR/2001/REC-SVG-20010904/DTD/svg10.dtd">
<svg version="1.0" xmlns="http://www.w3.org/2000/svg"
 width="626.000000pt" height="626.000000pt" viewBox="0 0 626.000000 626.000000"
 preserveAspectRatio="xMidYMid meet">

<g transform="translate(0.000000,626.000000) scale(0.100000,-0.100000)"
fill="#000000" stroke="none">
<path d="M2697 4363 c-4 -3 -7 -21 -7 -40 l0 -33 105 0 105 0 2 -742 3 -741
34 54 c19 30 85 139 148 242 63 104 130 210 149 236 l34 48 0 452 0 451 105 0
105 0 0 40 0 40 -388 0 c-214 0 -392 -3 -395 -7z"/>
<path d="M4193 4016 c-153 -50 -326 -162 -491 -321 -194 -185 -328 -360 -503
-653 -147 -245 -206 -336 -304 -467 -225 -300 -404 -406 -611 -362 -213 45
-352 204 -380 432 l-7 60 47 -52 c105 -116 271 -119 380 -7 50 52 69 108 64
192 -5 91 -42 154 -116 199 -69 41 -132 49 -213 28 -268 -68 -415 -412 -314
-732 81 -257 329 -426 625 -426 351 0 609 210 855 693 37 73 70 128 75 124 4
-5 78 -123 165 -262 101 -163 178 -276 218 -319 111 -119 259 -199 420 -227
110 -19 353 -30 392 -17 24 7 26 9 9 10 -34 1 -192 85 -264 140 -92 69 -253
238 -342 358 -127 171 -274 422 -359 612 -36 82 -40 97 -29 120 29 65 198 337
272 436 106 145 277 314 398 394 52 35 97 65 99 67 9 8 -16 2 -86 -20z"/>
</g>
</svg>
